# xmcd
#
# Track frame offsets:
#	150
#	38359
#	52673
#	82852
#	110845
#	134168
#	176287
#	217754
#	237933
#
# Disc length: 3425 seconds
#
# Revision: 3
# Processed by: cddbd v1.5.2PL0 Copyright (c) Steve Scherf et al.
# Submitted via: audiograbber 1.83.01
#
DISCID=680d5f09
DTITLE=a slow RIP - For the Time Being [CD2)
DYEAR=2008
DGENRE=Ambient Electronic
TTITLE0=Fricket
TTITLE1=Kalimbah Tweak
TTITLE2=The Court on the Left
TTITLE3=The Freeway Temple
TTITLE4=Drift Down Kiera
TTITLE5=Box the Remainder
TTITLE6=Look Back
TTITLE7=Swung and Hung
TTITLE8=Don't Leave the Light Out
EXTD=
EXTT0=
EXTT1=
EXTT2=
EXTT3=
EXTT4=
EXTT5=
EXTT6=
EXTT7=
EXTT8=
PLAYORDER=
